<svg viewBox="0 0 72 72" xmlns="http://www.w3.org/2000/svg"><path d="m13.3528 8.1195h44.8785v55.4381h-44.8785z" fill="#d0cfce"/><path d="m58.2313 25.7465-17.627-17.627h-20.6688l-.0213.0212 38.3171 38.3171z" fill="#fff"/><path d="m17.8806 13.0368h36.1591v41.4387h-36.1591z" fill="#3f3f3f"/><path d="m54.0397 42.2662v-20.7113l-8.5181-8.5181h-20.7113z" fill="#9b9b9a"/><path d="m13.4698 62.5391v-53.3722c0-.55.45-1 1-1h43.0444c.55 0 1 .45 1 1v53.3722c0 .55-.45 1-1 1h-43.0444c-.55 0-1-.45-1-1z" style="fill:none;stroke:#000;stroke-linecap:round;stroke-linejoin:round;stroke-miterlimit:10;stroke-width:2"/><circle cx="35.992" cy="59.0842" r="2"/><path d="m17.8806 13.0368h36.1591v41.4387h-36.1591z" style="fill:none;stroke:#000;stroke-linecap:round;stroke-linejoin:round;stroke-miterlimit:10;stroke-width:2"/></svg>